<svg id="github-logo" xmlns="http://www.w3.org/2000/svg" width="50" height="50" viewBox="0 0 50 50">
  <path id="Path_8" data-name="Path 8" d="M46.646,18.128a25.212,25.212,0,0,0-9.1-9.326A24,24,0,0,0,25,5.365,24,24,0,0,0,12.451,8.8a25.21,25.21,0,0,0-9.1,9.326A25.552,25.552,0,0,0,0,30.991,25.327,25.327,0,0,0,4.769,46.056a24.532,24.532,0,0,0,12.321,9.259,1.429,1.429,0,0,0,1.3-.233,1.32,1.32,0,0,0,.423-1q0-.1-.016-1.8t-.016-2.969l-.749.133a9.322,9.322,0,0,1-1.807.117,13.441,13.441,0,0,1-2.262-.234,5,5,0,0,1-2.181-1,4.232,4.232,0,0,1-1.432-2.052l-.326-.768A8.377,8.377,0,0,0,9,43.805a3.957,3.957,0,0,0-1.416-1.268l-.228-.167a2.413,2.413,0,0,1-.423-.4A1.837,1.837,0,0,1,6.64,41.5q-.1-.234.163-.384a2.065,2.065,0,0,1,.944-.149l.651.1a4.7,4.7,0,0,1,1.611.8A5.335,5.335,0,0,1,11.588,43.6a5.836,5.836,0,0,0,1.807,2.086,3.769,3.769,0,0,0,2.132.717,9.037,9.037,0,0,0,1.855-.166,6.365,6.365,0,0,0,1.465-.5A5.46,5.46,0,0,1,20.442,42.3a21.8,21.8,0,0,1-3.336-.6,13.105,13.105,0,0,1-3.06-1.3,8.818,8.818,0,0,1-2.621-2.235,10.848,10.848,0,0,1-1.709-3.5,17.051,17.051,0,0,1-.667-5.005,9.87,9.87,0,0,1,2.572-6.874,9.178,9.178,0,0,1,.228-6.807,4.462,4.462,0,0,1,2.8.45,19.355,19.355,0,0,1,2.718,1.285q.863.533,1.384.9a22.955,22.955,0,0,1,12.5,0l1.237-.8a17.336,17.336,0,0,1,2.994-1.468,4.171,4.171,0,0,1,2.638-.367,9.089,9.089,0,0,1,.26,6.807,9.872,9.872,0,0,1,2.572,6.874,17.242,17.242,0,0,1-.667,5.022,10.424,10.424,0,0,1-1.724,3.5A9.153,9.153,0,0,1,35.922,40.4a13.13,13.13,0,0,1-3.06,1.3,21.774,21.774,0,0,1-3.336.6,6.025,6.025,0,0,1,1.692,4.738v7.04a1.346,1.346,0,0,0,.407,1,1.387,1.387,0,0,0,1.286.233,24.529,24.529,0,0,0,12.321-9.259A25.332,25.332,0,0,0,50,30.99,25.573,25.573,0,0,0,46.646,18.128Z" transform="translate(0 -5.365)" fill="#fff"/>
</svg>
