<svg xmlns="http://www.w3.org/2000/svg" width="46.181" height="50" viewBox="0 0 46.181 50">
  <g id="Group_8" data-name="Group 8" transform="translate(-26.909)">
    <g id="icons8-css3" transform="translate(26.909 0)">
      <path id="Path_42" data-name="Path 42" d="M228.734,130.395H182.553l4.075,44.737,19.016,5.263,19.016-5.263,4.075-44.737Z" transform="translate(-182.553 -130.395)" fill="#0277bd"/>
      <path id="Path_43" data-name="Path 43" d="M625.895,208.632v41.974l15.213-4.211,3.4-37.763Z" transform="translate(-602.804 -204.684)" fill="#039be5"/>
      <path id="Path_44" data-name="Path 44" d="M638.255,339.026h-12.36v5.263h6.656l-.407,5.263h-6.248v5.263h5.976l-.408,5.921-5.569,1.842v5.526l10.73-3.421.951-15.132h0Z" transform="translate(-602.804 -328.5)" fill="#fff"/>
      <path id="Path_45" data-name="Path 45" d="M398.465,339.026v5.263H386.376l-.407-5.263Zm-6.248,10.526.272,5.263h5.976v-5.263Zm.543,7.895h-5.433l.407,7.237,10.73,3.421v-5.526l-5.569-1.842Z" transform="translate(-375.374 -328.5)" fill="#eee"/>
    </g>
  </g>
</svg>
