<svg xmlns="http://www.w3.org/2000/svg" width="50" height="50" viewBox="0 0 50 50">
  <path id="html-5" d="M27.3,1.655,31.012,43.17a1.593,1.593,0,0,0,1.22,1.344l19.532,5.414a2,2,0,0,0,1.062,0l19.532-5.414a1.593,1.593,0,0,0,1.22-1.344L77.289,1.655A1.636,1.636,0,0,0,75.538,0H29.051A1.636,1.636,0,0,0,27.3,1.655Zm40.47,12.881H43.58l.73,5.886H67.244L65.744,37.2,52.295,40.929,38.845,37.2l-.784-8.766h7.059v4.3l7.363,1.728L59.8,32.735l.568-6.853H37.833l-1.5-16.735H68.252Z" transform="translate(-27.295)" fill="#fc490b"/>
</svg>
