<svg xmlns="http://www.w3.org/2000/svg" width="50" height="50" viewBox="0 0 50 50">
  <g id="icons8-javascript" transform="translate(-6 -6)">
    <path id="Path_48" data-name="Path 48" d="M6,56V6H56V56Z" fill="#ffd600"/>
    <path id="Path_49" data-name="Path 49" d="M35.062,37.2c.961,1.561,2.006,3.057,4.218,3.057,1.858,0,2.833-.924,2.833-2.2,0-1.529-1.008-2.072-3.053-2.963l-1.121-.478c-3.235-1.372-5.386-3.092-5.386-6.724,0-3.347,2.563-5.894,6.567-5.894A6.634,6.634,0,0,1,45.5,25.575l-3.492,2.232a3.05,3.05,0,0,0-2.886-1.912,1.947,1.947,0,0,0-2.146,1.912c0,1.339.833,1.881,2.757,2.71l1.121.478c3.813,1.624,5.963,3.282,5.963,7.01,0,4.017-3.172,6.218-7.431,6.218a8.194,8.194,0,0,1-7.847-4.678Zm-16.092.114a3.793,3.793,0,0,0,3.307,2.226c1.469,0,2.315-.581,2.315-2.837V22h4.629V37.418c0,4.676-2.713,6.8-6.674,6.8a8.123,8.123,0,0,1-7.215-4.678Z" transform="translate(3.63 6.222)" fill="#000001"/>
  </g>
</svg>
