<svg id="icons8-webpack" xmlns="http://www.w3.org/2000/svg" width="50" height="50" viewBox="0 0 50 50">
  <path id="Path_11" data-name="Path 11" d="M7,14.475,29.727,3,53.363,14.475,29.727,25.951Z" transform="translate(-5.182 -2.18)" fill="#ace3ff"/>
  <path id="Path_12" data-name="Path 12" d="M6,17V41.59L29.636,53.885V28.475Z" transform="translate(-5.091 -4.704)" fill="#ace3ff"/>
  <path id="Path_13" data-name="Path 13" d="M17,21.557,30.636,15l13.636,6.557L30.636,28.115Z" transform="translate(-6.091 -4.344)" fill="#7bbeeb"/>
  <path id="Path_14" data-name="Path 14" d="M32,53.885,56.545,41.59V17L32,28.475Z" transform="translate(-7.455 -4.704)" fill="#ace3ff"/>
  <path id="Path_15" data-name="Path 15" d="M17,23V37.754l13.636,6.557V29.557Z" transform="translate(-6.091 -5.786)" fill="#7bbeeb"/>
  <path id="Path_16" data-name="Path 16" d="M32,44.311l13.636-6.557V23L32,29.557Z" transform="translate(-7.455 -5.786)" fill="#7bbeeb"/>
  <path id="Path_17" data-name="Path 17" d="M16,36.672,6,41.59V17l10,4.918Z" transform="translate(-5.091 -4.704)" fill="#e3f2ff"/>
  <path id="Path_18" data-name="Path 18" d="M30.545,28.754a.994.994,0,0,1-.428-.1L16.481,22.1a.785.785,0,0,1,0-1.448L30.117,14.1a1,1,0,0,1,.855,0l13.636,6.557a.785.785,0,0,1,0,1.448L30.974,28.658A.994.994,0,0,1,30.545,28.754Zm-11.7-7.377L30.545,27l11.7-5.628-11.7-5.628Z" transform="translate(-6 -4.163)" fill="#8d6c9f"/>
  <path id="Path_19" data-name="Path 19" d="M15.909,22.491a.868.868,0,0,1-.909-.82V19.7L5.474,15.014a.784.784,0,0,1,0-1.442L29.114,2.1a.96.96,0,0,1,1.231.334.78.78,0,0,1-.369,1.11L7.817,14.3l8.527,4.193a.812.812,0,0,1,.474.72v2.459A.868.868,0,0,1,15.909,22.491Z" transform="translate(-5 -1.999)" fill="#8d6c9f"/>
  <path id="Path_20" data-name="Path 20" d="M16.909,33.918A.868.868,0,0,1,16,33.1V29.82a.914.914,0,0,1,1.818,0V33.1A.868.868,0,0,1,16.909,33.918Z" transform="translate(-6 -6.868)" fill="#8d6c9f"/>
  <path id="Path_21" data-name="Path 21" d="M30.545,46.393a1,1,0,0,1-.428-.1L16.481,39.74A.815.815,0,0,1,16,39.016V36.557a.914.914,0,0,1,1.818,0v1.967l11.818,5.683V30.82a.914.914,0,0,1,1.818,0V45.574a.8.8,0,0,1-.441.7A.989.989,0,0,1,30.545,46.393Z" transform="translate(-6 -7.049)" fill="#8d6c9f"/>
  <path id="Path_22" data-name="Path 22" d="M56.545,45.918,32,57.393V47.557L45.636,41Z" transform="translate(-7.455 -9.033)" fill="#85cbf8"/>
  <path id="Path_23" data-name="Path 23" d="M31.909,59.934a.985.985,0,0,1-.461-.113A.807.807,0,0,1,31,59.114V48.459a.914.914,0,0,1,1.818,0v9.263L56.013,46.1a.961.961,0,0,1,1.236.319.778.778,0,0,1-.353,1.114L32.351,59.831A.992.992,0,0,1,31.909,59.934Z" transform="translate(-7.364 -9.934)" fill="#8d6c9f"/>
  <path id="Path_24" data-name="Path 24" d="M45.545,34.787a.868.868,0,0,1-.909-.82V19.213a.816.816,0,0,1,.5-.734l9.313-4.2L32.818,4.168v8.488a.914.914,0,0,1-1.818,0V2.82a.8.8,0,0,1,.436-.7.994.994,0,0,1,.891-.027L56.873,13.568a.786.786,0,0,1-.012,1.461l-10.406,4.69V33.967A.868.868,0,0,1,45.545,34.787Z" transform="translate(-7.364 -1.999)" fill="#8d6c9f"/>
  <path id="Path_25" data-name="Path 25" d="M43.962,43.981a.928.928,0,0,1-.8-.434L42.3,42.1a.78.78,0,0,1,.374-1.109.96.96,0,0,1,1.23.337l.855,1.447a.78.78,0,0,1-.374,1.109A.991.991,0,0,1,43.962,43.981Z" transform="translate(-8.382 -9.014)" fill="#8d6c9f"/>
  <path id="Path_26" data-name="Path 26" d="M39.8,46.2a.931.931,0,0,1-.8-.434l-.855-1.448a.782.782,0,0,1,.375-1.11.964.964,0,0,1,1.231.338L40.6,45a.782.782,0,0,1-.375,1.11A1,1,0,0,1,39.8,46.2Z" transform="translate(-8.003 -9.414)" fill="#8d6c9f"/>
  <path id="Path_27" data-name="Path 27" d="M35.628,48.425a.928.928,0,0,1-.8-.434l-.856-1.447a.781.781,0,0,1,.375-1.109.96.96,0,0,1,1.23.337l.855,1.447a.78.78,0,0,1-.374,1.109A.991.991,0,0,1,35.628,48.425Z" transform="translate(-7.624 -9.815)" fill="#8d6c9f"/>
  <path id="Path_28" data-name="Path 28" d="M57.818,42.229a1,1,0,0,1-.406-.086L46.5,37.225a.784.784,0,0,1-.406-1.1.96.96,0,0,1,1.22-.366l9.593,4.325V16.82a.914.914,0,0,1,1.818,0V41.41a.807.807,0,0,1-.431.7A.987.987,0,0,1,57.818,42.229Z" transform="translate(-8.728 -4.524)" fill="#8d6c9f"/>
  <g id="Group_4" data-name="Group 4" transform="translate(0 11.476)">
    <path id="Path_29" data-name="Path 29" d="M5.909,42.229a.982.982,0,0,1-.464-.115A.807.807,0,0,1,5,41.41V16.82A.868.868,0,0,1,5.909,16a.868.868,0,0,1,.909.82V40.028l8.655-4.257a.963.963,0,0,1,1.234.327.779.779,0,0,1-.363,1.111l-10,4.918A.981.981,0,0,1,5.909,42.229Z" transform="translate(-5 -16)" fill="#8d6c9f"/>
  </g>
  <g id="Group_5" data-name="Group 5" transform="translate(0 36.065)">
    <path id="Path_30" data-name="Path 30" d="M29.544,59.934a.984.984,0,0,1-.454-.11L5.455,47.529a.777.777,0,0,1-.333-1.12.964.964,0,0,1,1.242-.3L30,58.4a.777.777,0,0,1,.334,1.12A.935.935,0,0,1,29.544,59.934Z" transform="translate(-5 -46)" fill="#8d6c9f"/>
  </g>
</svg>
