<svg xmlns="http://www.w3.org/2000/svg" width="38" height="38" viewBox="0 0 38 38">
  <path id="icons8-git" d="M42.2,22.1,25.9,5.8A2.732,2.732,0,0,0,24,5h0a2.732,2.732,0,0,0-1.9.8L18.6,9.3l4.1,4.1a2.768,2.768,0,0,1,1.3-.3,2.946,2.946,0,0,1,3,3,2.768,2.768,0,0,1-.3,1.3l4,4a2.768,2.768,0,0,1,1.3-.3,3,3,0,1,1-3,3,2.768,2.768,0,0,1,.3-1.3l-4-4c-.1,0-.2.1-.3.1V29.3a2.913,2.913,0,0,1,2,2.8,3,3,0,0,1-6,0,2.913,2.913,0,0,1,2-2.8V18.8A2.913,2.913,0,0,1,21,16a2.768,2.768,0,0,1,.3-1.3l-4.1-4.1L5.8,22.1a2.656,2.656,0,0,0,0,3.8L22.1,42.2h0a2.656,2.656,0,0,0,3.8,0L42.2,25.9a2.656,2.656,0,0,0,0-3.8Z" transform="translate(-5 -5)" fill="#f4511e"/>
</svg>
