<svg id="Livello_39" xmlns="http://www.w3.org/2000/svg" width="30" height="30" viewBox="0 0 30 30">
  <path id="Path_1" data-name="Path 1" d="M28.832,15.549a13.791,13.791,0,0,1-3.6,8.776A15.03,15.03,0,0,0,21.2,21.63a29.862,29.862,0,0,0,.706-6.081h6.929Zm0-1.1H21.9a29.03,29.03,0,0,0-.95-7.064,14.964,14.964,0,0,0,3.707-2.3,13.8,13.8,0,0,1,4.172,9.364M23.793,4.306a13.86,13.86,0,0,1-3.175,1.963A12.779,12.779,0,0,0,18,1.482a13.8,13.8,0,0,1,5.8,2.824M19.6,6.675a13.787,13.787,0,0,1-4.046.771V1.219C17.2,1.6,18.65,3.654,19.6,6.675M15.55,8.6a14.938,14.938,0,0,0,4.361-.813,29.315,29.315,0,0,1,.835,6.66h-5.2Zm0,6.947h5.2a30.279,30.279,0,0,1-.6,5.65,14.95,14.95,0,0,0-4.593-.9V15.549Zm0,5.911a13.8,13.8,0,0,1,4.329.874c-.925,3.556-2.5,6.029-4.329,6.446ZM18,28.517a13.783,13.783,0,0,0,2.913-5.746,13.863,13.863,0,0,1,3.507,2.375A13.807,13.807,0,0,1,18,28.517m-3.546.263c-1.826-.417-3.4-2.889-4.329-6.446a13.8,13.8,0,0,1,4.329-.874Zm0-8.476a14.926,14.926,0,0,0-4.593.9,30.322,30.322,0,0,1-.6-5.651h5.2V20.3Zm0-5.854h-5.2a29.311,29.311,0,0,1,.836-6.659A14.967,14.967,0,0,0,14.45,8.6V14.45Zm0-7A13.791,13.791,0,0,1,10.4,6.675C11.35,3.654,12.8,1.6,14.45,1.219ZM12,1.482A12.772,12.772,0,0,0,9.382,6.269,13.845,13.845,0,0,1,6.208,4.306,13.79,13.79,0,0,1,12,1.482m-6.665,3.6a15.013,15.013,0,0,0,3.709,2.3,29.037,29.037,0,0,0-.95,7.065H1.168A13.8,13.8,0,0,1,5.339,5.086M1.168,15.549H8.1A29.849,29.849,0,0,0,8.8,21.63a15.035,15.035,0,0,0-4.034,2.695,13.792,13.792,0,0,1-3.6-8.776m4.416,9.6A13.869,13.869,0,0,1,9.09,22.771,13.785,13.785,0,0,0,12,28.517a13.808,13.808,0,0,1-6.42-3.371m24.405-9.6H30v-1.1h-.011A15,15,0,0,0,15.55.011V0h-1.1V.011A15,15,0,0,0,.011,14.45H0v1.1H.011a14.941,14.941,0,0,0,3.942,9.6l-.02.022h.04A14.961,14.961,0,0,0,14.45,29.989V30h1.1v-.011a14.956,14.956,0,0,0,10.477-4.821h.04l-.02-.022a14.943,14.943,0,0,0,3.942-9.6" fill="#fff"/>
</svg>
