<svg id="sass" xmlns="http://www.w3.org/2000/svg" width="50" height="50" viewBox="0 0 50 50">
  <path id="Path_40" data-name="Path 40" d="M50,25q0,1.159-.1,2.29-.08.9-.225,1.769A25.018,25.018,0,1,1,50,25Z" fill="#f2f2f2"/>
  <path id="Path_41" data-name="Path 41" d="M65.2,68.309c-.758.287-.728.292-1.129-.439a6.342,6.342,0,0,1-.808-2.973,6.893,6.893,0,0,1,.545-2.595c.251-.662-.075-.9-.649-.956a6.25,6.25,0,0,0-1.266,0c-1.088.111-1.195.205-1.484,1.261a10.755,10.755,0,0,1-.593,1.853c-.7,1.464-1.5,2.875-2.318,4.275a3.665,3.665,0,0,1-.475.739,5.543,5.543,0,0,1-.866-2.9,7.348,7.348,0,0,1,.6-2.893.455.455,0,0,0-.252-.645,1.093,1.093,0,0,0-.387-.127,5.893,5.893,0,0,0-2.075.144.721.721,0,0,0-.574.6,9.158,9.158,0,0,1-.619,1.954q-1.163,2.611-2.32,5.227c-.673,1.513-1.337,3.031-2.135,4.484-.056.1-.1.282-.244.246s-.093-.211-.1-.332a8.6,8.6,0,0,1,.387-2.493c.315-1.295.66-2.584.995-3.875a.661.661,0,0,0-.372-.8,1.134,1.134,0,0,0-1.36.09,8.329,8.329,0,0,0,.071-1.451,1.747,1.747,0,0,0-1.36-1.856,2.8,2.8,0,0,0-1.725.32,8.707,8.707,0,0,0-3.138,2.6,1.137,1.137,0,0,1-.346.323Q38.8,69.41,36.4,70.73a.292.292,0,0,1-.415-.065,22.37,22.37,0,0,0-2.668-2.3,29.611,29.611,0,0,1-3.752-3.192,6.17,6.17,0,0,1-1.47-2.442,5.6,5.6,0,0,1,.629-4.351,12.936,12.936,0,0,1,3.61-3.979,34.792,34.792,0,0,1,7.405-4.321,20.907,20.907,0,0,1,9.26-2,8.156,8.156,0,0,1,3.691.905,2.738,2.738,0,0,1,1.5,2.041,4.992,4.992,0,0,1-.581,3.108,12.042,12.042,0,0,1-4.919,4.916,16.351,16.351,0,0,1-5.547,1.973,10.241,10.241,0,0,1-3.27.13,5.052,5.052,0,0,1-3.271-1.62.306.306,0,0,0-.393-.115c-.172.084-.159.237-.143.384a1.329,1.329,0,0,0,.075.3A3.524,3.524,0,0,0,37.305,61.6a7.02,7.02,0,0,0,4.486,1.408,18.6,18.6,0,0,0,4.713-.542,14.262,14.262,0,0,0,8.575-5.5A9.4,9.4,0,0,0,57.1,51.051a5.176,5.176,0,0,0-1.545-3.66A8.662,8.662,0,0,0,51.2,45.226a16.2,16.2,0,0,0-5.48-.239,22.61,22.61,0,0,0-4.7,1.046,41.936,41.936,0,0,0-6.751,3,28.957,28.957,0,0,0-6.125,4.405,14.582,14.582,0,0,0-3.793,5.425A4.975,4.975,0,0,0,24,61.709a8.039,8.039,0,0,0,1.743,3.375A22.6,22.6,0,0,0,30.1,68.915c1.27.912,2.6,1.743,3.82,2.723.346.278.344.278-.063.491-.475.248-.956.487-1.423.751a20.808,20.808,0,0,0-5.193,3.826,5.88,5.88,0,0,0-1.46,2.664,25.079,25.079,0,0,0,4.278,4.881,8.593,8.593,0,0,0,7.719-7.889,8.972,8.972,0,0,0-.363-3.549c-.062-.2-.294-.407-.2-.587s.34-.249.528-.357c.757-.44,1.516-.873,2.3-1.321a.67.67,0,0,1-.06.371,10.765,10.765,0,0,0-.418,5,6.958,6.958,0,0,0,1.233,2.939,1.89,1.89,0,0,0,2.851-.025,13.607,13.607,0,0,0,1.395-2.547c.224-.482.431-.971.645-1.458a16.253,16.253,0,0,0-.016,1.727,3.358,3.358,0,0,0,.4,1.611,1.174,1.174,0,0,0,1.625.451,3.606,3.606,0,0,0,1.431-1.489,69.275,69.275,0,0,0,3.964-7.968c.241-.585.488-1.168.76-1.818.042.213.069.344.095.475a12.438,12.438,0,0,0,1.345,3.718.527.527,0,0,1-.052.662c-.6.811-1.249,1.575-1.893,2.346a20.2,20.2,0,0,0-1.577,1.984.879.879,0,0,0,.508,1.447,2.919,2.919,0,0,0,.647.055,6.811,6.811,0,0,0,3.319-.954A3.833,3.833,0,0,0,58.4,73.489a5.669,5.669,0,0,0-.52-2.149.363.363,0,0,1,.03-.405,39.768,39.768,0,0,0,2.578-4.283,3.726,3.726,0,0,1,.457-.8c.03.1.053.167.066.234a11.58,11.58,0,0,0,1.2,3.514c.171.3.086.451-.151.651a9.367,9.367,0,0,0-2.043,2.427,4.573,4.573,0,0,0-.705,2.334,1.247,1.247,0,0,0,1.637,1.271,7.283,7.283,0,0,0,2.633-1.2c1.73-1.266,2.237-2.6,1.695-4.466-.212-.734-.208-.721.528-.944a10.709,10.709,0,0,1,4.883-.239q.279.046.551.105.144-.874.225-1.769A10.406,10.406,0,0,0,65.2,68.309Zm-34,13.128a3.486,3.486,0,0,1-1.447.2,1.114,1.114,0,0,1-1.049-1.14,4.1,4.1,0,0,1,.509-2.1,8.584,8.584,0,0,1,2.64-2.823,30.326,30.326,0,0,1,3.164-2.095c.33-.2.335-.194.41.2a5.814,5.814,0,0,1,.153,1.467A6.782,6.782,0,0,1,31.2,81.436ZM46.179,67.58a16.938,16.938,0,0,1-.955,3.351c-.549,1.488-1.084,2.983-1.775,4.413a3.469,3.469,0,0,1-.581.925c-.242.254-.456.225-.623-.086a4.414,4.414,0,0,1-.339-1.77,10.2,10.2,0,0,1,2.2-6.27,2.749,2.749,0,0,1,1.506-1.077C46.047,66.956,46.248,67.131,46.179,67.58Zm9.51,7.275a4.584,4.584,0,0,1-1.958,1.805c-.088.044-.2.121-.281.018s.046-.161.1-.222c.817-.893,1.625-1.793,2.352-2.761.011-.015.039-.017.1-.044A2.407,2.407,0,0,1,55.689,74.855Zm5.644-.035c-.121.057-.262.164-.381.072s-.079-.28-.039-.416a7.3,7.3,0,0,1,.781-1.777,6.571,6.571,0,0,1,1.044-1.259c.159-.153.231-.135.285.086a2.994,2.994,0,0,1,.065.681A2.749,2.749,0,0,1,61.333,74.82Z" transform="translate(-21.574 -40.479)" fill="#cd6699"/>
</svg>
