<svg xmlns="http://www.w3.org/2000/svg" width="50" height="50" viewBox="0 0 50 50">
  <g id="twitter" transform="translate(-125 -57)">
    <g id="OBJECTS" transform="translate(125 57)">
      <path id="Path_132" data-name="Path 132" d="M50,25A25,25,0,1,0,25,50,25,25,0,0,0,50,25Z" transform="translate(0 0)" fill="#00a9ff"/>
      <path id="Path_133" data-name="Path 133" d="M58.646,44.778a12.335,12.335,0,0,1-3.189.815,6.005,6.005,0,0,0,2.587-3.071.094.094,0,0,0-.136-.115,12.185,12.185,0,0,1-3.642,1.33,6.1,6.1,0,0,0-4.435-1.887,6.03,6.03,0,0,0-6.072,5.971,5.88,5.88,0,0,0,.157,1.365,17.344,17.344,0,0,1-12.491-6.2.031.031,0,0,0-.056,0,5.918,5.918,0,0,0,1.8,7.868.038.038,0,0,1-.021.07,6.089,6.089,0,0,1-2.573-.717.031.031,0,0,0-.049.028,8.167,8.167,0,0,0,.411,2.19,6.127,6.127,0,0,0,4.463,3.7,6.413,6.413,0,0,1-1.6.212,6.267,6.267,0,0,1-1.079-.1.031.031,0,0,0-.038.042,6.075,6.075,0,0,0,5.57,4.1.035.035,0,0,1,.024.063A12.5,12.5,0,0,1,29.36,62.87a17.407,17.407,0,0,0,9.274,2.667,16.927,16.927,0,0,0,11.384-4.108,17.539,17.539,0,0,0,5.49-9.3,16.307,16.307,0,0,0,.425-3.617c0-.258,0-.519-.021-.773a12.209,12.209,0,0,0,2.844-2.834.094.094,0,0,0-.111-.132Z" transform="translate(-19.139 -27.28)" fill="#fff"/>
    </g>
  </g>
</svg>
