<svg xmlns="http://www.w3.org/2000/svg" width="50" height="50" viewBox="0 0 50 50">
  <g id="watsup" transform="translate(0)">
    <g id="OBJECTS" transform="translate(0 0)">
      <path id="Path_87" data-name="Path 87" d="M50,25A25,25,0,1,0,25,50,25,25,0,0,0,50,25Z" transform="translate(0 0)" fill="#00b456"/>
      <path id="Path_88" data-name="Path 88" d="M58.6,39.054a14.768,14.768,0,0,0-29.512-.275c0,.216-.017.428-.017.648a14.566,14.566,0,0,0,2.012,7.391.192.192,0,0,1,.021.174L28.488,54.72a.136.136,0,0,0,.171.171L36.7,52.328a.216.216,0,0,1,.167,0,14.89,14.89,0,0,0,6.963,1.741A14.73,14.73,0,0,0,58.6,39.426ZM33.884,46.017A11.729,11.729,0,0,1,31.861,39.4c0-.379.021-.759.059-1.156a12,12,0,0,1,23.882.223c.028.348.038.658.038.93A12,12,0,0,1,38.783,50.191c-.442-.205-1.278-.7-1.539-.863a.226.226,0,0,0-.178-.021l-4.049,1.288a.118.118,0,0,1-.15-.15l1.3-3.843a.237.237,0,0,0-.028-.2,3.191,3.191,0,0,1-.251-.376Z" transform="translate(-18.566 -16.122)" fill="#fff"/>
      <path id="Path_89" data-name="Path 89" d="M65.3,57.687a3.245,3.245,0,0,0-.731-.453c-.251-.125-2.089-1.044-2.437-1.156s-.634-.226-.937.223c-.23.348-.9,1.124-1.121,1.372-.153.174-.292.23-.634.063A12.4,12.4,0,0,1,56.6,56a10.573,10.573,0,0,1-1.96-2.437c-.157-.265-.052-.386.139-.578.118-.118.641-.748.7-.808.084-.129.23-.432.23-.432a.769.769,0,0,0-.066-.707c-.059-.118-1.006-2.4-1.1-2.618-.272-.644-.561-.7-.836-.661-.136,0-1.393,0-1.789.453l-.07.073a3.99,3.99,0,0,0-1.208,2.952,4.449,4.449,0,0,0,.188,1.236,8.063,8.063,0,0,0,1.292,2.493s.93,1.292,1.393,1.821a12.582,12.582,0,0,0,4.759,3.555A11.208,11.208,0,0,0,61.8,61.35a7.547,7.547,0,0,0,.8-.122,3.755,3.755,0,0,0,2.5-1.741A3,3,0,0,0,65.3,57.687Z" transform="translate(-33.008 -31.124)" fill="#fff"/>
    </g>
  </g>
</svg>
